<svg xmlns="http://www.w3.org/2000/svg" viewBox="0 0 1200 675"><defs><linearGradient id="bg" x2="1" y2="1"><stop stop-color="#0b1720"/><stop offset="1" stop-color="#243e50"/></linearGradient></defs><rect width="1200" height="675" fill="url(#bg)"/><g opacity=".8" fill="#d4af37"><path d="M720 250 L930 155 L1140 250 Z"/><rect x="750" y="260" width="360" height="18"/><rect x="780" y="278" width="26" height="185"/><rect x="865" y="278" width="26" height="185"/><rect x="950" y="278" width="26" height="185"/><rect x="1035" y="278" width="26" height="185"/><rect x="735" y="463" width="390" height="20"/></g><g fill="#fff" opacity=".12"><rect x="70" y="90" width="520" height="420" rx="20"/><path d="M100 150 L320 80 L540 150 L320 220 Z"/><path d="M145 165 V270 Q320 340 495 270 V165 L320 230 Z"/></g><text x="75" y="380" fill="#d4af37" font-family="Arial" font-size="26" font-weight="700" letter-spacing="4">UGANDA • EDUCATION</text><text x="75" y="450" fill="#fff" font-family="Georgia" font-size="58" font-weight="700">Research &amp; Learning</text><text x="75" y="510" fill="#dce4ea" font-family="Arial" font-size="27">Investment in education and innovation</text><text x="75" y="585" fill="#d4af37" font-family="Arial" font-size="22">MBALE MEDIA DAILY</text></svg>